<?xml version="1.0" standalone="no"?>
<!DOCTYPE svg PUBLIC "-//W3C//DTD SVG 20010904//EN"
 "http://www.w3.org/TR/2001/REC-SVG-20010904/DTD/svg10.dtd">
<svg version="1.0" xmlns="http://www.w3.org/2000/svg"
 width="512.000000pt" height="512.000000pt" viewBox="0 0 512.000000 512.000000"
 preserveAspectRatio="xMidYMid meet">
<metadata>
Created by potrace 1.14, written by Peter Selinger 2001-2017
</metadata>
<g transform="translate(0.000000,512.000000) scale(0.100000,-0.100000)"
fill="#000000" stroke="none">
<path d="M612 4940 c-109 -29 -187 -74 -273 -160 -87 -85 -130 -160 -160 -277
-18 -74 -19 -131 -18 -1947 0 -1812 1 -1873 19 -1944 51 -196 194 -349 393
-424 l62 -23 1895 -2 c2095 -3 1955 -7 2095 62 123 60 216 154 276 280 62 130
59 11 58 2060 0 1808 -1 1872 -19 1943 -29 109 -74 187 -160 272 -84 85 -158
128 -270 159 -74 21 -84 21 -1950 20 -1812 0 -1877 -1 -1948 -19z"/>
</g>
</svg>
