<?xml version="1.0" standalone="no"?>
<!DOCTYPE svg PUBLIC "-//W3C//DTD SVG 20010904//EN"
 "http://www.w3.org/TR/2001/REC-SVG-20010904/DTD/svg10.dtd">
<svg version="1.0" xmlns="http://www.w3.org/2000/svg"
 width="512.000000pt" height="512.000000pt" viewBox="0 0 512.000000 512.000000"
 preserveAspectRatio="xMidYMid meet">
<metadata>
Created by potrace 1.14, written by Peter Selinger 2001-2017
</metadata>
<g transform="translate(0.000000,512.000000) scale(0.100000,-0.100000)"
fill="#000000" stroke="none">
<path d="M2347 5110 c-504 -46 -961 -225 -1367 -538 -126 -97 -363 -340 -461
-472 -121 -163 -171 -244 -254 -415 -125 -256 -193 -472 -236 -756 -31 -205
-31 -533 0 -738 43 -284 111 -500 236 -756 131 -268 269 -460 489 -681 221
-220 413 -358 681 -489 256 -125 472 -193 756 -236 205 -31 533 -31 738 0 284
43 500 111 756 236 268 131 460 269 681 489 220 221 358 413 489 681 125 256
193 472 236 756 31 205 31 533 0 738 -43 284 -111 500 -236 756 -131 268 -269
460 -489 681 -221 220 -413 358 -681 489 -256 125 -477 194 -751 235 -160 23
-442 33 -587 20z m486 -155 c458 -53 892 -236 1242 -520 109 -89 281 -261 369
-370 222 -275 405 -662 475 -1002 111 -538 41 -1089 -200 -1571 -125 -251
-248 -424 -447 -625 -201 -204 -388 -339 -644 -466 -334 -167 -692 -251 -1068
-251 -376 0 -734 84 -1068 251 -256 127 -443 262 -644 466 -199 201 -322 374
-447 625 -167 334 -251 692 -251 1068 0 376 84 734 251 1068 127 256 262 443
466 644 201 199 374 322 625 447 246 124 510 203 785 236 149 18 403 18 556 0z"/>
<path d="M2976 4679 c-31 -24 -35 -67 -8 -97 18 -22 180 -73 236 -74 40 -1 80
44 71 81 -10 42 -27 52 -137 82 -124 34 -128 34 -162 8z"/>
<path d="M3521 4464 c-44 -56 -26 -85 93 -156 130 -76 260 -179 387 -307 163
-164 259 -291 363 -484 49 -90 67 -107 110 -107 27 0 66 41 66 70 0 41 -139
275 -250 420 -158 207 -390 412 -615 543 -92 54 -124 59 -154 21z"/>
<path d="M1835 3651 c-40 -24 -60 -49 -74 -90 -16 -48 -16 -1954 0 -2002 24
-70 80 -109 157 -109 45 0 110 34 938 485 624 340 899 495 921 519 55 60 56
149 2 211 -33 38 -224 145 -258 145 -29 0 -71 -43 -71 -73 0 -34 29 -60 130
-114 52 -28 90 -54 90 -63 0 -17 -1747 -973 -1761 -964 -12 7 -12 1921 0 1928
5 3 289 -148 632 -335 343 -187 638 -343 654 -346 65 -11 106 71 59 117 -10
10 -304 174 -653 364 -597 326 -638 346 -685 346 -32 0 -62 -7 -81 -19z"/>
<path d="M601 1684 c-29 -37 -27 -49 20 -140 183 -350 485 -668 819 -864 113
-67 268 -140 296 -140 35 0 64 34 64 73 0 43 -16 57 -113 101 -373 169 -722
503 -931 888 -26 48 -55 92 -66 98 -33 18 -67 11 -89 -16z"/>
</g>
</svg>
